# xmcd CD database file
#
# Track frame offsets:
#	150
#	14422
#	28030
#	40855
#	52142
#	66227
#	79665
#	92475
#	104912
#	119205
#	132920
#	144677
#	158072
#	169502
#	183370
#	194590
#	206515
#	223390
#	235202
#	248785
#	260962
#	271982
#	285245
#	296662
#
# Disc length: 4137 seconds
#
# Revision: 2
# Processed by: cddbd v1.4PL0 Copyright (c) Steve Scherf et al.
# Submitted via: CDex 1.50Beta7
#
DISCID=7c102718
DTITLE=Jimmy Witherspoon and Jay McShann - Jimmy Witherspoon and Jay McShann 
DYEAR=2000
DGENRE=Blues
TTITLE0=Ain't Nobody's Business
TTITLE1=In the Evening
TTITLE2=Frog-I-More
TTITLE3=McShann Bounce
TTITLE4=How Long Blues
TTITLE5=Money's Gettin' Cheaper
TTITLE6=Skid Row Blues
TTITLE7=Spoon Calls Hootie
TTITLE8=Blackwater Blues
TTITLE9=Jumpin with Louis
TTITLE10=Destruction Blues
TTITLE11=Ain't Nobody's Business (ver 2)
TTITLE12=Hot Bicuits
TTITLE13=Slow Drag Blues
TTITLE14=M. R. Boogie
TTITLE15=Buttermilk
TTITLE16=Skid Row Blues
TTITLE17=Soft Winds
TTITLE18=No Name Boogie
TTITLE19=Thinking about My Baby
TTITLE20=Geronimo
TTITLE21=Twelve O'clock Whistle
TTITLE22=Mellodrag
TTITLE23=Eatin' Watermelon
EXTD=YEAR: 2000
EXTT0=
EXTT1=
EXTT2=
EXTT3=
EXTT4=
EXTT5=
EXTT6=
EXTT7=
EXTT8=
EXTT9=
EXTT10=
EXTT11=
EXTT12=
EXTT13=
EXTT14=
EXTT15=
EXTT16=
EXTT17=
EXTT18=
EXTT19=
EXTT20=
EXTT21=
EXTT22=
EXTT23=
PLAYORDER=
